<?xml version="1.0" encoding="utf-8"?>
<!-- Generator: Adobe Illustrator 28.0.0, SVG Export Plug-In . SVG Version: 6.00 Build 0)  -->
<svg version="1.1" id="Layer_1" xmlns="http://www.w3.org/2000/svg" xmlns:xlink="http://www.w3.org/1999/xlink" x="0px" y="0px"
	 viewBox="0 0 6000 6000" style="enable-background:new 0 0 6000 6000;" xml:space="preserve">
<g>
	<g>
		<path d="M984.5,4139.79v-574.2h161.02v451.04h262.93v123.16H984.5z"/>
		<path d="M1487.56,4139.79v-574.2h415.58v118.4h-259.21v103.75h221.98v117.61h-221.98v113.65h262.93v120.78H1487.56z"/>
		<path d="M2029.71,4139.79v-574.2h159.16v249.88l222.91-249.88h191.73l-254.56,273.24l274.57,300.96H2429l-240.13-264.53v264.53
			H2029.71z"/>
		<path d="M2648.18,3977.43c41.57,21.65,76.86,36.83,105.87,45.54c29.01,8.71,57.31,13.07,84.93,13.07
			c27.92,0,50.33-5.21,67.25-15.64c16.9-10.43,25.36-23.82,25.36-40.19c0-23.49-30.1-49.9-90.28-79.2
			c-9.62-4.75-17.07-8.45-22.34-11.09l-45.6-21.78c-44.37-21.38-77.25-45.54-98.66-72.47c-21.41-26.93-32.11-57.42-32.11-91.48
			c0-46.19,20.48-84.08,61.43-113.65c40.95-29.56,93.84-44.35,158.69-44.35c23.89,0,49.79,2.38,77.72,7.13
			c27.92,4.75,58.94,12.15,93.07,22.18v134.64c-32.58-17.42-63.45-30.89-92.61-40.39c-29.17-9.5-53.98-14.26-74.46-14.26
			c-22.65,0-40.49,4.16-53.52,12.47c-13.03,8.32-19.55,19.6-19.55,33.86c0,10.04,3.87,19.4,11.63,28.12
			c7.75,8.71,19.39,16.63,34.9,23.76l79.11,37.22c66.08,31.15,110.52,59.93,133.33,86.33c22.8,26.4,34.21,57.69,34.21,93.85
			c0,55.97-22.42,101.18-67.25,135.63c-44.84,34.45-104.32,51.68-178.47,51.68c-25.13,0-52.43-2.25-81.9-6.73
			c-29.48-4.49-61.9-11.48-97.26-20.99L2648.18,3977.43z"/>
		<path d="M3098.19,4139.79l343.91-592.02h10.24l336.46,592.02h-168.46c-59.15-110.47-118.3-220.93-177.45-331.4
			c-60.91,110.47-121.83,220.93-182.74,331.4H3098.19z"/>
		<path d="M3839.52,4139.79v-592.81h15.36l420.23,335.02v-316.4h148.45v595.98h-13.96l-421.62-335.02v313.24H3839.52z"/>
		<path d="M4578.06,4139.79v-574.2h179.17c125.95,0,224.61,25.61,295.97,76.82c71.35,51.22,107.04,121.31,107.04,210.28
			c0,53.33-14.12,100.65-42.35,141.97c-28.24,41.32-69.65,75.31-124.25,101.97c-31.03,15.31-64.77,26.33-101.22,33.07
			c-36.46,6.73-81.52,10.1-135.19,10.1H4578.06z M4737.22,4016.63h35.37c70.42,0,125.49-14.51,165.2-43.56
			c39.71-29.04,59.57-69.16,59.57-120.38c0-51.21-19.86-91.48-59.57-120.78c-39.72-29.3-94.78-43.96-165.2-43.96h-35.37V4016.63z"/>
		<path d="M5272.85,4139.79v-574.2h173.58c55.53,0,98.58,3.11,129.14,9.31c30.56,6.21,57.62,16.57,81.21,31.09
			c25.13,15.31,44.6,34.25,58.4,56.83c13.8,22.57,20.71,46.4,20.71,71.48c0,36.17-10.79,67.85-32.35,95.04
			c-21.57,27.19-52.67,48.45-93.31,63.76l205.69,246.71h-183.82l-180.1-225.32h-22.8v225.32H5272.85z M5455.74,3670.13h-26.53
			v159.19h33.97c40.64,0,71.67-6.99,93.07-20.99c21.41-13.99,32.11-34.06,32.11-60.19c0-27.45-10.4-47.32-31.18-59.6
			C5536.4,3676.27,5502.58,3670.13,5455.74,3670.13z"/>
		<path d="M846.52,3732.5c-16.91-37.09-41.81-69.76-74.69-98.01c-32.57-28.25-69.88-49.9-111.92-64.94
			c-42.04-15.05-86.02-22.57-131.93-22.57c-45.92,0-89.82,7.46-131.7,22.37c-41.88,14.92-78.65,36.37-110.29,64.35
			c-33.51,29.3-58.87,62.51-76.09,99.59c-17.22,37.09-25.83,76.89-25.83,119.39c0,42.51,8.61,82.17,25.83,119
			c17.22,36.83,42.58,69.89,76.09,99.2c32.26,28.25,69.26,49.9,110.99,64.94c41.72,15.05,85.4,22.57,131,22.57
			c53.67,0,104.47-10.3,152.41-30.89c47.93-20.59,88.34-49.5,121.23-86.72c23.27-26.14,40.79-55.04,52.59-86.72
			c11.79-31.68,17.69-65.47,17.69-101.38C871.88,3809.66,863.42,3769.59,846.52,3732.5z M723.32,3904.33
			c0,58.66-47.55,106.22-106.22,106.22H438.84c-58.66,0-106.22-47.55-106.22-106.22v-100.12c0-58.66,47.55-106.22,106.22-106.22
			H617.1c58.66,0,106.22,47.55,106.22,106.22V3904.33z"/>
	</g>
	<g>
		<path d="M2905.77,3409.34l-1117.64-1567.7c-448.54,156.77-897.07,313.54-1345.61,470.31
			c-108.87,165.48-217.74,330.96-326.6,496.44c511.68-187.25,1023.36-374.51,1535.04-561.76
			C2069.23,2634.2,2487.5,3021.77,2905.77,3409.34z"/>
		<path d="M512.32,2865.03c379.76-143.57,759.52-287.14,1139.29-430.72c293.71,260.83,587.42,521.66,881.12,782.5
			c-327.14-177.03-654.29-354.07-981.43-531.1c-436.07,196.07-872.13,392.14-1308.2,588.2
			C332.83,3137.62,422.58,3001.32,512.32,2865.03z"/>
		<path d="M2180.06,3141.52c-223.08-95.8-446.15-191.61-669.23-287.41c-227.64,104.51-455.28,209.03-682.91,313.54
			c-56.61,104.51-113.22,209.03-169.83,313.54c268.22-148.46,536.43-296.91,804.65-445.37
			C1701.84,3071.06,1940.95,3106.29,2180.06,3141.52z"/>
		<path d="M3094.23,3407.59l1117.64-1567.7c448.54,156.77,897.07,313.54,1345.61,470.31c108.87,165.48,217.74,330.96,326.6,496.44
			c-511.68-187.25-1023.36-374.51-1535.04-561.76C3930.77,2632.45,3512.5,3020.02,3094.23,3407.59z"/>
		<path d="M5487.68,2863.28c-379.76-143.57-759.52-287.14-1139.29-430.72c-293.71,260.83-587.42,521.66-881.12,782.5
			c327.14-177.03,654.29-354.07,981.43-531.1c436.07,196.07,872.13,392.14,1308.2,588.2
			C5667.17,3135.87,5577.42,2999.58,5487.68,2863.28z"/>
		<path d="M3819.94,3139.78c223.08-95.8,446.15-191.61,669.23-287.41c227.64,104.51,455.27,209.03,682.91,313.54
			c56.61,104.51,113.22,209.03,169.83,313.54c-268.22-148.46-536.43-296.91-804.65-445.37
			C4298.16,3069.31,4059.05,3104.54,3819.94,3139.78z"/>
	</g>
</g>
</svg>
