<?xml version="1.0" encoding="utf-8"?>
<!-- Generator: Adobe Illustrator 28.0.0, SVG Export Plug-In . SVG Version: 6.00 Build 0)  -->
<svg version="1.1" xmlns="http://www.w3.org/2000/svg" xmlns:xlink="http://www.w3.org/1999/xlink" x="0px" y="0px"
	 viewBox="0 0 6000 6000" style="enable-background:new 0 0 6000 6000;" xml:space="preserve">
<g id="Layer_1">
</g>
<g id="Layer_2">
	<g>
		<g>
			<path d="M984.5,3286.24v-574.2h161.02v451.04h262.93v123.16H984.5z"/>
			<path d="M1487.56,3286.24v-574.2h415.58v118.4h-259.21v103.75h221.98v117.61h-221.98v113.65h262.93v120.78H1487.56z"/>
			<path d="M2029.71,3286.24v-574.2h159.16v249.88l222.91-249.88h191.73l-254.56,273.24l274.57,300.96H2429l-240.13-264.53v264.53
				H2029.71z"/>
			<path d="M2648.18,3123.89c41.57,21.65,76.86,36.83,105.87,45.54c29.01,8.71,57.31,13.07,84.93,13.07
				c27.92,0,50.33-5.21,67.25-15.64c16.9-10.43,25.36-23.82,25.36-40.19c0-23.49-30.1-49.9-90.28-79.2
				c-9.62-4.75-17.07-8.45-22.34-11.09l-45.6-21.78c-44.37-21.38-77.25-45.54-98.66-72.47c-21.41-26.93-32.11-57.42-32.11-91.48
				c0-46.19,20.48-84.08,61.43-113.65c40.95-29.56,93.84-44.35,158.69-44.35c23.89,0,49.79,2.38,77.72,7.13
				c27.92,4.75,58.94,12.15,93.07,22.18v134.64c-32.58-17.42-63.45-30.89-92.61-40.39c-29.17-9.5-53.98-14.26-74.46-14.26
				c-22.65,0-40.49,4.16-53.52,12.47c-13.03,8.32-19.55,19.6-19.55,33.86c0,10.04,3.87,19.4,11.63,28.12
				c7.75,8.71,19.39,16.63,34.9,23.76l79.11,37.22c66.08,31.15,110.52,59.93,133.33,86.33c22.8,26.4,34.21,57.69,34.21,93.85
				c0,55.97-22.42,101.18-67.25,135.63c-44.84,34.45-104.32,51.68-178.47,51.68c-25.13,0-52.43-2.25-81.9-6.73
				c-29.48-4.49-61.9-11.48-97.26-20.99L2648.18,3123.89z"/>
			<path d="M3098.19,3286.24l343.91-592.02h10.24l336.46,592.02h-168.46c-59.15-110.47-118.3-220.93-177.45-331.4
				c-60.91,110.47-121.83,220.93-182.74,331.4H3098.19z"/>
			<path d="M3839.52,3286.24v-592.81h15.36l420.23,335.02v-316.4h148.45v595.98h-13.96l-421.62-335.02v313.24H3839.52z"/>
			<path d="M4578.06,3286.24v-574.2h179.17c125.95,0,224.61,25.61,295.97,76.82c71.35,51.22,107.04,121.31,107.04,210.28
				c0,53.33-14.12,100.65-42.35,141.97c-28.24,41.32-69.65,75.31-124.25,101.97c-31.03,15.31-64.77,26.33-101.22,33.07
				c-36.46,6.73-81.52,10.1-135.19,10.1H4578.06z M4737.22,3163.09h35.37c70.42,0,125.49-14.51,165.2-43.56
				c39.71-29.04,59.57-69.16,59.57-120.38c0-51.21-19.86-91.48-59.57-120.78c-39.72-29.3-94.78-43.96-165.2-43.96h-35.37V3163.09z"
				/>
			<path d="M5272.85,3286.24v-574.2h173.58c55.53,0,98.58,3.11,129.14,9.31c30.56,6.21,57.62,16.57,81.21,31.09
				c25.13,15.31,44.6,34.25,58.4,56.83c13.8,22.57,20.71,46.4,20.71,71.48c0,36.17-10.79,67.85-32.35,95.04
				c-21.57,27.19-52.67,48.45-93.31,63.76l205.69,246.71h-183.82l-180.1-225.32h-22.8v225.32H5272.85z M5455.74,2816.59h-26.53
				v159.19h33.97c40.64,0,71.67-6.99,93.07-20.99c21.41-13.99,32.11-34.06,32.11-60.19c0-27.45-10.4-47.32-31.18-59.6
				C5536.4,2822.73,5502.58,2816.59,5455.74,2816.59z"/>
			<path d="M846.52,2878.96c-16.91-37.09-41.81-69.76-74.69-98.01c-32.57-28.25-69.88-49.9-111.92-64.94
				c-42.04-15.05-86.02-22.57-131.93-22.57c-45.92,0-89.82,7.46-131.7,22.37c-41.88,14.92-78.65,36.37-110.29,64.35
				c-33.51,29.3-58.87,62.51-76.09,99.59c-17.22,37.09-25.83,76.89-25.83,119.39c0,42.51,8.61,82.17,25.83,119
				c17.22,36.83,42.58,69.89,76.09,99.2c32.26,28.25,69.26,49.9,110.99,64.94c41.72,15.05,85.4,22.57,131,22.57
				c53.67,0,104.47-10.3,152.41-30.89c47.93-20.59,88.34-49.5,121.23-86.72c23.27-26.14,40.79-55.04,52.59-86.72
				c11.79-31.68,17.69-65.47,17.69-101.38C871.88,2956.12,863.42,2916.05,846.52,2878.96z M723.32,3050.79
				c0,58.66-47.55,106.22-106.22,106.22H438.84c-58.66,0-106.22-47.55-106.22-106.22v-100.12c0-58.66,47.55-106.22,106.22-106.22
				H617.1c58.66,0,106.22,47.55,106.22,106.22V3050.79z"/>
		</g>
		<g>
			<path d="M1032.93,2581.46l-362.51-508.49c-145.48,50.85-290.97,101.7-436.45,152.55c-35.31,53.67-70.62,107.35-105.94,161.02
				c165.97-60.74,331.93-121.47,497.9-182.21C761.59,2330.04,897.26,2455.75,1032.93,2581.46z"/>
			<path d="M256.6,2404.91c123.18-46.57,246.35-93.14,369.53-139.7c95.27,84.6,190.53,169.2,285.8,253.81
				c-106.11-57.42-212.22-114.84-318.33-172.26c-141.44,63.6-282.88,127.19-424.32,190.79
				C198.39,2493.33,227.49,2449.12,256.6,2404.91z"/>
			<path d="M797.54,2494.59c-72.36-31.07-144.71-62.15-217.07-93.22c-73.84,33.9-147.67,67.8-221.51,101.7
				c-18.36,33.9-36.72,67.8-55.09,101.7c87-48.15,173.99-96.31,260.99-144.46C642.43,2471.74,719.99,2483.17,797.54,2494.59z"/>
			<path d="M1094.06,2580.9l362.51-508.49c145.48,50.85,290.97,101.7,436.45,152.55c35.31,53.67,70.62,107.35,105.94,161.02
				c-165.97-60.74-331.93-121.47-497.9-182.21C1365.39,2329.47,1229.72,2455.19,1094.06,2580.9z"/>
			<path d="M1870.38,2404.35c-123.18-46.57-246.35-93.14-369.53-139.7c-95.27,84.6-190.53,169.2-285.8,253.81
				c106.11-57.42,212.22-114.84,318.33-172.26c141.44,63.6,282.88,127.19,424.32,190.79
				C1928.6,2492.76,1899.49,2448.55,1870.38,2404.35z"/>
			<path d="M1329.44,2494.03c72.36-31.07,144.71-62.15,217.07-93.22c73.84,33.9,147.67,67.8,221.51,101.7
				c18.36,33.9,36.72,67.8,55.09,101.7c-87-48.15-173.99-96.31-260.99-144.46C1484.56,2471.17,1407,2482.6,1329.44,2494.03z"/>
		</g>
	</g>
</g>
</svg>
