<?xml version="1.0" encoding="utf-8"?>
<!-- Generator: Adobe Illustrator 28.0.0, SVG Export Plug-In . SVG Version: 6.00 Build 0)  -->
<svg version="1.1" xmlns="http://www.w3.org/2000/svg" xmlns:xlink="http://www.w3.org/1999/xlink" x="0px" y="0px"
	 viewBox="0 0 6000 6000" style="enable-background:new 0 0 6000 6000;" xml:space="preserve">
<g id="Layer_1">
</g>
<g id="Layer_2">
	<g>
		<path d="M2905.77,3748.8L1788.14,2181.1c-448.54,156.77-897.07,313.54-1345.61,470.31c-108.87,165.48-217.74,330.96-326.6,496.44
			c511.68-187.25,1023.36-374.51,1535.04-561.76C2069.23,2973.66,2487.5,3361.23,2905.77,3748.8z"/>
		<path d="M512.32,3204.49c379.76-143.57,759.52-287.14,1139.29-430.72c293.71,260.83,587.42,521.66,881.12,782.5
			c-327.14-177.03-654.29-354.07-981.43-531.1c-436.07,196.07-872.13,392.14-1308.2,588.2
			C332.83,3477.08,422.58,3340.78,512.32,3204.49z"/>
		<path d="M2180.06,3480.98c-223.08-95.8-446.15-191.61-669.23-287.41c-227.64,104.51-455.28,209.03-682.91,313.54
			c-56.61,104.51-113.22,209.03-169.83,313.54c268.22-148.46,536.43-296.91,804.65-445.37
			C1701.84,3410.51,1940.95,3445.75,2180.06,3480.98z"/>
		<path d="M3094.23,3747.05l1117.64-1567.7c448.54,156.77,897.07,313.54,1345.61,470.31c108.87,165.48,217.74,330.96,326.6,496.44
			c-511.68-187.25-1023.36-374.51-1535.04-561.76C3930.77,2971.91,3512.5,3359.48,3094.23,3747.05z"/>
		<path d="M5487.68,3202.74c-379.76-143.57-759.52-287.14-1139.29-430.72c-293.71,260.83-587.42,521.66-881.12,782.49
			c327.14-177.03,654.29-354.07,981.43-531.1c436.07,196.07,872.13,392.14,1308.2,588.2
			C5667.17,3475.33,5577.42,3339.03,5487.68,3202.74z"/>
		<path d="M3819.94,3479.23c223.08-95.8,446.15-191.61,669.23-287.41c227.64,104.51,455.27,209.03,682.91,313.54
			c56.61,104.51,113.22,209.03,169.83,313.54c-268.22-148.46-536.43-296.91-804.65-445.37
			C4298.16,3408.77,4059.05,3444,3819.94,3479.23z"/>
	</g>
</g>
</svg>
